HIERARCHY
ROOT hip
{
  OFFSET 0 90.174 2.4664
  CHANNELS 6 Xposition Yposition Zposition Zrotation Xrotation Yrotation
  JOINT abdomen
  {
    OFFSET 0 -1.186 -1.5018
    CHANNELS 6 Xposition Yposition Zposition Zrotation Xrotation Yrotation
    JOINT abdomen2
    {
      OFFSET 0 9.964 0.2134
      CHANNELS 6 Xposition Yposition Zposition Zrotation Xrotation Yrotation
      JOINT chest
      {
        OFFSET 0 13.134 -3.2573
        CHANNELS 6 Xposition Yposition Zposition Zrotation Xrotation Yrotation
        JOINT neck
        {
          OFFSET 0 20.686 -1.6905
          CHANNELS 6 Xposition Yposition Zposition Zrotation Xrotation Yrotation
          JOINT head
          {
            OFFSET 0 7.238 -0.1237
            CHANNELS 6 Xposition Yposition Zposition Zrotation Xrotation Yrotation
            End Site
            {
              OFFSET 0 0 0
            }
          }
        }
        JOINT lCollar
        {
          OFFSET 1.7069 20.075 5.0056
          CHANNELS 6 Xposition Yposition Zposition Zrotation Xrotation Yrotation
          JOINT lShldr
          {
            OFFSET 13.6458 -0.047 -4.849
            CHANNELS 6 Xposition Yposition Zposition Zrotation Xrotation Yrotation
            JOINT lForeArm
            {
              OFFSET 28.3255 -0.9759 2.2888
              CHANNELS 6 Xposition Yposition Zposition Zrotation Xrotation Yrotation
              JOINT lHand
              {
                OFFSET 22.1583 -0.53 10.8316
                CHANNELS 6 Xposition Yposition Zposition Zrotation Xrotation Yrotation
                JOINT lThumb1
                {
                  OFFSET 0.786 0.112 2.5817
                  CHANNELS 6 Xposition Yposition Zposition Zrotation Xrotation Yrotation
                  JOINT lThumb2
                  {
                    OFFSET 0.3601 -0.878 4.2331
                    CHANNELS 6 Xposition Yposition Zposition Zrotation Xrotation Yrotation
                    JOINT lThumb2_End
                    {
                      OFFSET 1.8127 -1.216 2.2227
                      CHANNELS 6 Xposition Yposition Zposition Zrotation Xrotation Yrotation
                      End Site
                      {
                        OFFSET 0.0181 -0.0122 0.0222
                      }
                    }
                  }
                }
                JOINT lCarpal1
                {
                  OFFSET 0.9571 1.114 1.7695
                  CHANNELS 6 Xposition Yposition Zposition Zrotation Xrotation Yrotation
                  JOINT lIndex1
                  {
                    OFFSET 4.1246 0.487 4.1451
                    CHANNELS 6 Xposition Yposition Zposition Zrotation Xrotation Yrotation
                    JOINT lIndex2
                    {
                      OFFSET 3.4052 -1.454 2.7682
                      CHANNELS 6 Xposition Yposition Zposition Zrotation Xrotation Yrotation
                      JOINT lIndex2_End
                      {
                        OFFSET 1.4531 -1.795 1.2713
                        CHANNELS 6 Xposition Yposition Zposition Zrotation Xrotation Yrotation
                        End Site
                        {
                          OFFSET 0.0145 -0.0179 0.0127
                        }
                      }
                    }
                  }
                  JOINT lMid1
                  {
                    OFFSET 5.6954 0.21 2.1184
                    CHANNELS 6 Xposition Yposition Zposition Zrotation Xrotation Yrotation
                    JOINT lMid2
                    {
                      OFFSET 3.9766 -1.54 2.3863
                      CHANNELS 6 Xposition Yposition Zposition Zrotation Xrotation Yrotation
                      JOINT lMid2_End
                      {
                        OFFSET 1.4042 -1.926 1.125
                        CHANNELS 6 Xposition Yposition Zposition Zrotation Xrotation Yrotation
                        End Site
                        {
                          OFFSET 0.014 -0.0193 0.0113
                        }
                      }
                    }
                  }
                }
                JOINT lCarpal2
                {
                  OFFSET 2.0956 0.66 -0.3894
                  CHANNELS 6 Xposition Yposition Zposition Zrotation Xrotation Yrotation
                  JOINT lRing1
                  {
                    OFFSET 5.0395 -0.09 2.4971
                    CHANNELS 6 Xposition Yposition Zposition Zrotation Xrotation Yrotation
                    JOINT lRing2
                    {
                      OFFSET 3.7921 -1.552 1.4806
                      CHANNELS 6 Xposition Yposition Zposition Zrotation Xrotation Yrotation
                      JOINT lRing2_End
                      {
                        OFFSET 1.4655 -1.808 0.9609
                        CHANNELS 6 Xposition Yposition Zposition Zrotation Xrotation Yrotation
                        End Site
                        {
                          OFFSET 0.0147 -0.0181 0.0096
                        }
                      }
                    }
                  }
                  JOINT lPinky1
                  {
                    OFFSET 4.9141 -1.269 0.3591
                    CHANNELS 6 Xposition Yposition Zposition Zrotation Xrotation Yrotation
                    JOINT lPinky2
                    {
                      OFFSET 3.1477 -1.685 0.8462
                      CHANNELS 6 Xposition Yposition Zposition Zrotation Xrotation Yrotation
                      JOINT lPinky2_End
                      {
                        OFFSET 0.8055 -1.585 0.7955
                        CHANNELS 6 Xposition Yposition Zposition Zrotation Xrotation Yrotation
                        End Site
                        {
                          OFFSET 0.0081 -0.0158 0.008
                        }
                      }
                    }
                  }
                }
              }
            }
          }
        }
        JOINT rCollar
        {
          OFFSET -1.7069 20.075 5.0056
          CHANNELS 6 Xposition Yposition Zposition Zrotation Xrotation Yrotation
          JOINT rShldr
          {
            OFFSET -13.6458 -0.047 -4.849
            CHANNELS 6 Xposition Yposition Zposition Zrotation Xrotation Yrotation
            JOINT rForeArm
            {
              OFFSET -28.3255 -0.9759 2.2888
              CHANNELS 6 Xposition Yposition Zposition Zrotation Xrotation Yrotation
              JOINT rHand
              {
                OFFSET -22.1583 -0.53 10.8316
                CHANNELS 6 Xposition Yposition Zposition Zrotation Xrotation Yrotation
                JOINT rThumb1
                {
                  OFFSET -0.786 0.112 2.5817
                  CHANNELS 6 Xposition Yposition Zposition Zrotation Xrotation Yrotation
                  JOINT rThumb2
                  {
                    OFFSET -0.3601 -0.878 4.2331
                    CHANNELS 6 Xposition Yposition Zposition Zrotation Xrotation Yrotation
                    JOINT rThumb2_End
                    {
                      OFFSET -1.8127 -1.216 2.2227
                      CHANNELS 6 Xposition Yposition Zposition Zrotation Xrotation Yrotation
                      End Site
                      {
                        OFFSET -0.0181 -0.0122 0.0222
                      }
                    }
                  }
                }
                JOINT rCarpal1
                {
                  OFFSET -0.9571 1.114 1.7695
                  CHANNELS 6 Xposition Yposition Zposition Zrotation Xrotation Yrotation
                  JOINT rIndex1
                  {
                    OFFSET -4.1246 0.487 4.1451
                    CHANNELS 6 Xposition Yposition Zposition Zrotation Xrotation Yrotation
                    JOINT rIndex2
                    {
                      OFFSET -3.4052 -1.454 2.7682
                      CHANNELS 6 Xposition Yposition Zposition Zrotation Xrotation Yrotation
                      JOINT rIndex2_End
                      {
                        OFFSET -1.4531 -1.795 1.2713
                        CHANNELS 6 Xposition Yposition Zposition Zrotation Xrotation Yrotation
                        End Site
                        {
                          OFFSET -0.0145 -0.018 0.0127
                        }
                      }
                    }
                  }
                  JOINT rMid1
                  {
                    OFFSET -5.6954 0.21 2.1184
                    CHANNELS 6 Xposition Yposition Zposition Zrotation Xrotation Yrotation
                    JOINT rMid2
                    {
                      OFFSET -3.9766 -1.54 2.3863
                      CHANNELS 6 Xposition Yposition Zposition Zrotation Xrotation Yrotation
                      JOINT rMid2_End
                      {
                        OFFSET -1.4042 -1.926 1.125
                        CHANNELS 6 Xposition Yposition Zposition Zrotation Xrotation Yrotation
                        End Site
                        {
                          OFFSET -0.014 -0.0193 0.0113
                        }
                      }
                    }
                  }
                }
                JOINT rCarpal2
                {
                  OFFSET -2.0956 0.66 -0.3894
                  CHANNELS 6 Xposition Yposition Zposition Zrotation Xrotation Yrotation
                  JOINT rRing1
                  {
                    OFFSET -5.0395 -0.09 2.4971
                    CHANNELS 6 Xposition Yposition Zposition Zrotation Xrotation Yrotation
                    JOINT rRing2
                    {
                      OFFSET -3.7921 -1.552 1.4806
                      CHANNELS 6 Xposition Yposition Zposition Zrotation Xrotation Yrotation
                      JOINT rRing2_End
                      {
                        OFFSET -1.4655 -1.808 0.9609
                        CHANNELS 6 Xposition Yposition Zposition Zrotation Xrotation Yrotation
                        End Site
                        {
                          OFFSET -0.0147 -0.0181 0.0096
                        }
                      }
                    }
                  }
                  JOINT rPinky1
                  {
                    OFFSET -4.9141 -1.269 0.3592
                    CHANNELS 6 Xposition Yposition Zposition Zrotation Xrotation Yrotation
                    JOINT rPinky2
                    {
                      OFFSET -3.1477 -1.685 0.8462
                      CHANNELS 6 Xposition Yposition Zposition Zrotation Xrotation Yrotation
                      JOINT rPinky2_End
                      {
                        OFFSET -0.8055 -1.585 0.7955
                        CHANNELS 6 Xposition Yposition Zposition Zrotation Xrotation Yrotation
                        End Site
                        {
                          OFFSET -0.0081 -0.0158 0.008
                        }
                      }
                    }
                  }
                }
              }
            }
          }
        }
      }
    }
  }
  JOINT lThigh
  {
    OFFSET 8.367 -8.2066 0.5982
    CHANNELS 6 Xposition Yposition Zposition Zrotation Xrotation Yrotation
    JOINT lShin
    {
      OFFSET 2.1923 -43.463 -0.4932
      CHANNELS 6 Xposition Yposition Zposition Zrotation Xrotation Yrotation
      JOINT lFoot
      {
        OFFSET 0.7333 -45.8593 -2.6451
        CHANNELS 6 Xposition Yposition Zposition Zrotation Xrotation Yrotation
        End Site
        {
          OFFSET 2.6618 -4.2699 12.3931
        }
      }
    }
  }
  JOINT rThigh
  {
    OFFSET -8.367 -8.2066 0.5982
    CHANNELS 6 Xposition Yposition Zposition Zrotation Xrotation Yrotation
    JOINT rShin
    {
      OFFSET -2.1923 -43.463 -0.4931
      CHANNELS 6 Xposition Yposition Zposition Zrotation Xrotation Yrotation
      JOINT rFoot
      {
        OFFSET -0.7333 -45.8593 -2.6451
        CHANNELS 6 Xposition Yposition Zposition Zrotation Xrotation Yrotation
        End Site
        {
          OFFSET -2.6618 -4.2699 12.3931
        }
      }
    }
  }
}
MOTION
Frames:	4
Frame Time:	0.0333333
1.73553 56.6053 12.8817 0 33.4499 -0 0 -1.186 -1.5018 0.245496 -1.59594 -0.268426 -2.22045e-016 9.964 0.2134 0.483789 -3.19299 -0.530314 4.44089e-016 13.134 -3.2573 0.483789 -3.193 -0.530313 4.44089e-016 20.686 -1.6905 -2.4907e-008 -9.12524 -1.44579e-005 0 7.238 -0.1237 11.6474 -3.35181 0.420233 1.7069 20.075 5.0056 -39.3021 21.77 -30.4081 13.6458 -0.047 -4.849 -30.598 -2.73874 23.6578 28.3255 -0.9759 2.2888 -11.681 6.90838 -22.4354 22.1583 -0.53 10.8316 5.93701 -39.1577 -46.8154 0.786 0.112 2.5817 1.73937e-015 3.97569e-016 3.18055e-015 0.3601 -0.878 4.2331 2.38542e-015 7.45443e-016 -0 1.8127 -1.216 2.2227 4.47266e-016 4.47266e-016 -0 0.9571 1.114 1.7695 1.49089e-016 6.95746e-016 3.18055e-015 4.1246 0.487 4.1451 4.22417e-016 7.95139e-016 3.18055e-015 3.4052 -1.454 2.7682 7.45443e-017 -2.98177e-016 -0 1.4531 -1.795 1.2713 1.26725e-015 -1.98785e-016 -0 5.6954 0.21 2.1184 4.22417e-016 7.95139e-016 3.18055e-015 3.9766 -1.54 2.3863 7.45443e-017 -2.98177e-016 -0 1.4042 -1.926 1.125 1.26725e-015 -1.98785e-016 -0 2.0956 0.66 -0.3894 1.49089e-016 6.95746e-016 3.18055e-015 5.0395 -0.09 2.4971 4.22417e-016 7.95139e-016 3.18055e-015 3.7921 -1.552 1.4806 7.45443e-017 -2.98177e-016 -0 1.4655 -1.808 0.9609 1.26725e-015 -1.98785e-016 -0 4.9141 -1.269 0.3591 4.22417e-016 7.95139e-016 3.18055e-015 3.1477 -1.685 0.8462 7.45443e-017 -2.98177e-016 -0 0.8055 -1.585 0.7955 1.26725e-015 -1.98785e-016 -0 -1.7069 20.075 5.0056 35.2391 20.2704 30.2714 -13.6458 -0.047 -4.849 30.0856 -2.74644 -22.8198 -28.3255 -0.9759 2.2888 9.62308 5.65976 20.0569 -22.1583 -0.53 10.8316 -0.0324051 -36.5152 48.8209 -0.786 0.112 2.5817 1.09332e-015 7.95139e-016 6.36111e-015 -0.3601 -0.878 4.2331 2.5842e-015 3.97569e-016 6.36111e-015 -1.8127 -1.216 2.2227 -9.93923e-017 -1.98785e-016 9.54166e-015 -0.9571 1.114 1.7695 9.93923e-017 0 -0 -4.1246 0.487 4.1451 8.94531e-016 -3.97569e-016 -0 -3.4052 -1.454 2.7682 2.08724e-015 3.97569e-016 9.54166e-015 -1.4531 -1.795 1.2713 7.95139e-016 -1.98785e-016 9.54166e-015 -5.6954 0.21 2.1184 8.94531e-016 -3.97569e-016 -0 -3.9766 -1.54 2.3863 2.08724e-015 3.97569e-016 9.54166e-015 -1.4042 -1.926 1.125 7.95139e-016 -1.98785e-016 9.54166e-015 -2.0956 0.66 -0.3894 9.93923e-017 0 -0 -5.0395 -0.09 2.4971 8.94531e-016 -3.97569e-016 -0 -3.7921 -1.552 1.4806 2.08724e-015 3.97569e-016 9.54166e-015 -1.4655 -1.808 0.9609 7.95139e-016 -1.98785e-016 9.54166e-015 -4.9141 -1.269 0.3592 8.94531e-016 -3.97569e-016 -0 -3.1477 -1.685 0.8462 2.08724e-015 3.97569e-016 9.54166e-015 -0.8055 -1.585 0.7955 7.95139e-016 -1.98785e-016 9.54166e-015 8.367 -8.2066 0.5982 59.4979 -18.4049 22.7134 2.1923 -43.463 -0.4932 4.80833 82.393 0.37542 0.7333 -45.8593 -2.6451 -51.7482 45.8267 61.9221 -8.367 -8.2066 0.5982 -59.5175 -18.393 -22.7402 -2.1923 -43.463 -0.4931 -4.98441 82.3915 -0.193412 -0.7333 -45.8593 -2.6451 51.7152 45.8364 -61.9098 
1.73554 56.6138 12.6869 0 33.9008 -0 0 -1.186 -1.5018 0.246008 -1.61607 -0.26748 0 9.964 0.2134 0.484753 -3.23325 -0.528328 0 13.134 -3.2573 0.484752 -3.23326 -0.528328 0 20.686 -1.6905 -3.28349e-005 -9.9328 2.57536e-005 0 7.238 -0.1237 11.5812 -3.94456 0.531098 1.7069 20.075 5.0056 -38.9675 21.4842 -30.7571 13.6458 -0.047 -4.849 -30.7106 -2.76428 23.6834 28.3255 -0.9759 2.2888 -11.7835 6.98353 -22.7111 22.1583 -0.53 10.8316 6.15584 -39.2243 -46.5261 0.786 0.112 2.5817 -4.96962e-017 0 6.36111e-015 0.3601 -0.878 4.2331 -7.45443e-016 6.95746e-016 6.36111e-015 1.8127 -1.216 2.2227 2.23633e-016 1.09332e-015 3.18055e-015 0.9571 1.114 1.7695 7.45443e-016 -4.47266e-016 6.36111e-015 4.1246 0.487 4.1451 -8.69683e-016 -4.96962e-017 1.90833e-014 3.4052 -1.454 2.7682 -2.08724e-015 9.93923e-017 6.36111e-015 1.4531 -1.795 1.2713 -8.69683e-016 1.49089e-016 3.18055e-015 5.6954 0.21 2.1184 -8.69683e-016 -4.96962e-017 1.90833e-014 3.9766 -1.54 2.3863 -2.08724e-015 9.93923e-017 6.36111e-015 1.4042 -1.926 1.125 -8.69683e-016 1.49089e-016 3.18055e-015 2.0956 0.66 -0.3894 7.45443e-016 -4.47266e-016 6.36111e-015 5.0395 -0.09 2.4971 -8.69683e-016 -4.96962e-017 1.90833e-014 3.7921 -1.552 1.4806 -2.08724e-015 9.93923e-017 6.36111e-015 1.4655 -1.808 0.9609 -8.69683e-016 1.49089e-016 3.18055e-015 4.9141 -1.269 0.3591 -8.69683e-016 -4.96962e-017 1.90833e-014 3.1477 -1.685 0.8462 -2.08724e-015 9.93923e-017 6.36111e-015 0.8055 -1.585 0.7955 -8.69683e-016 1.49089e-016 3.18055e-015 -1.7069 20.075 5.0056 34.9153 19.9711 30.6137 -13.6458 -0.047 -4.849 30.2203 -2.77906 -22.8504 -28.3255 -0.9759 2.2888 9.72875 5.72323 20.3322 -22.1583 -0.53 10.8316 -0.233128 -36.6014 48.5486 -0.786 0.112 2.5817 2.98177e-016 -1.19271e-015 6.36111e-015 -0.3601 -0.878 4.2331 -6.95746e-016 -1.78906e-015 6.36111e-015 -1.8127 -1.216 2.2227 3.08973e-031 -1.39149e-015 1.27222e-014 -0.9571 1.114 1.7695 1.98785e-016 -7.95139e-016 3.18055e-015 -4.1246 0.487 4.1451 -2.98177e-016 -7.95139e-016 9.54166e-015 -3.4052 -1.454 2.7682 9.93923e-017 -1.19271e-015 1.27222e-014 -1.4531 -1.795 1.2713 -9.93923e-017 -9.93923e-016 1.27222e-014 -5.6954 0.21 2.1184 -2.98177e-016 -7.95139e-016 9.54166e-015 -3.9766 -1.54 2.3863 9.93923e-017 -1.19271e-015 1.27222e-014 -1.4042 -1.926 1.125 -9.93923e-017 -9.93923e-016 1.27222e-014 -2.0956 0.66 -0.3894 1.98785e-016 -7.95139e-016 3.18055e-015 -5.0395 -0.09 2.4971 -2.98177e-016 -7.95139e-016 9.54166e-015 -3.7921 -1.552 1.4806 9.93923e-017 -1.19271e-015 1.27222e-014 -1.4655 -1.808 0.9609 -9.93923e-017 -9.93923e-016 1.27222e-014 -4.9141 -1.269 0.3592 -2.98177e-016 -7.95139e-016 9.54166e-015 -3.1477 -1.685 0.8462 9.93923e-017 -1.19271e-015 1.27222e-014 -0.8055 -1.585 0.7955 -9.93923e-017 -9.93923e-016 1.27222e-014 8.367 -8.2066 0.5982 59.4742 -19.0375 22.8193 2.1923 -43.463 -0.4932 5.18095 82.6873 0.040649 0.7333 -45.8593 -2.6451 -52.1942 45.6333 62.2166 -8.367 -8.2066 0.5982 -59.4938 -19.0257 -22.8462 -2.1923 -43.463 -0.4931 -5.36577 82.6858 0.150202 -0.7333 -45.8593 -2.6451 52.1619 45.6427 -62.205 
1.73555 56.6224 12.4917 0 34.3517 -0 0 -1.186 -1.5018 0.246502 -1.63612 -0.266518 0 9.964 0.2134 0.485682 -3.27335 -0.52631 0 13.134 -3.2573 0.485682 -3.27332 -0.526311 -4.44089e-016 20.686 -1.6905 -4.08997e-006 -10.7405 -9.86108e-006 0 7.238 -0.1237 11.516 -4.53766 0.641407 1.7069 20.075 5.0056 -38.6352 21.1962 -31.1039 13.6458 -0.047 -4.849 -30.8232 -2.78987 23.709 28.3255 -0.9759 2.2888 -11.8856 7.05914 -22.9867 22.1583 -0.53 10.8316 6.37529 -39.29 -46.2363 0.786 0.112 2.5817 8.94531e-016 5.96354e-016 3.18055e-015 0.3601 -0.878 4.2331 -8.19987e-016 2.48481e-016 3.18055e-015 1.8127 -1.216 2.2227 2.73329e-016 8.94531e-016 -0 0.9571 1.114 1.7695 8.69683e-016 9.93923e-017 -0 4.1246 0.487 4.1451 -2.60905e-015 5.96354e-016 3.18055e-015 3.4052 -1.454 2.7682 -5.2181e-016 9.93923e-016 -0 1.4531 -1.795 1.2713 5.71506e-016 1.2921e-015 9.54166e-015 5.6954 0.21 2.1184 -2.60905e-015 5.96354e-016 3.18055e-015 3.9766 -1.54 2.3863 -5.2181e-016 9.93923e-016 -0 1.4042 -1.926 1.125 5.71506e-016 1.2921e-015 9.54166e-015 2.0956 0.66 -0.3894 8.69683e-016 9.93923e-017 -0 5.0395 -0.09 2.4971 -2.60905e-015 5.96354e-016 3.18055e-015 3.7921 -1.552 1.4806 -5.2181e-016 9.93923e-016 -0 1.4655 -1.808 0.9609 5.71506e-016 1.2921e-015 9.54166e-015 4.9141 -1.269 0.3591 -2.60905e-015 5.96354e-016 3.18055e-015 3.1477 -1.685 0.8462 -5.2181e-016 9.93923e-016 -0 0.8055 -1.585 0.7955 5.71506e-016 1.2921e-015 9.54166e-015 -1.7069 20.075 5.0056 34.5941 19.6697 30.9537 -13.6458 -0.047 -4.849 30.355 -2.81175 -22.881 -28.3255 -0.9759 2.2888 9.83408 5.78722 20.6074 -22.1583 -0.53 10.8316 -0.434603 -36.6869 48.2756 -0.786 0.112 2.5817 3.97569e-016 -3.97569e-016 3.18055e-015 -0.3601 -0.878 4.2331 9.93923e-016 -9.93923e-016 3.18055e-015 -1.8127 -1.216 2.2227 3.97569e-016 -9.93923e-016 6.36111e-015 -0.9571 1.114 1.7695 2.98177e-016 -3.97569e-016 -0 -4.1246 0.487 4.1451 1.19271e-015 -2.18663e-015 1.27222e-014 -3.4052 -1.454 2.7682 -3.97569e-016 0 3.18055e-015 -1.4531 -1.795 1.2713 8.94531e-016 -5.96354e-016 -0 -5.6954 0.21 2.1184 1.19271e-015 -2.18663e-015 1.27222e-014 -3.9766 -1.54 2.3863 -3.97569e-016 0 3.18055e-015 -1.4042 -1.926 1.125 8.94531e-016 -5.96354e-016 -0 -2.0956 0.66 -0.3894 2.98177e-016 -3.97569e-016 -0 -5.0395 -0.09 2.4971 1.19271e-015 -2.18663e-015 1.27222e-014 -3.7921 -1.552 1.4806 -3.97569e-016 0 3.18055e-015 -1.4655 -1.808 0.9609 8.94531e-016 -5.96354e-016 -0 -4.9141 -1.269 0.3592 1.19271e-015 -2.18663e-015 1.27222e-014 -3.1477 -1.685 0.8462 -3.97569e-016 0 3.18055e-015 -0.8055 -1.585 0.7955 8.94531e-016 -5.96354e-016 -0 8.367 -8.2066 0.5982 59.4515 -19.6706 22.9253 2.1923 -43.463 -0.4932 5.58552 82.9812 -0.325768 0.7333 -45.8593 -2.6451 -52.6377 45.4387 62.5085 -8.367 -8.2066 0.5982 -59.4711 -19.6587 -22.9524 -2.1923 -43.463 -0.4931 -5.77954 82.9794 0.525945 -0.7333 -45.8593 -2.6451 52.606 45.4477 -62.4975 
1.73556 56.6311 12.2961 0 34.8025 -0 0 -1.186 -1.5018 0.246998 -1.65621 -0.26556 -4.44089e-016 9.964 0.2134 0.486615 -3.31348 -0.524301 0 13.134 -3.2573 0.486615 -3.3135 -0.524301 4.44089e-016 20.686 -1.6905 -1.65907e-006 -11.5491 -5.20479e-006 -4.44089e-016 7.238 -0.1237 11.4519 -5.13113 0.751177 1.7069 20.075 5.0056 -38.3056 20.9066 -31.4481 13.6458 -0.047 -4.849 -30.9357 -2.81551 23.7346 28.3255 -0.9759 2.2888 -11.9875 7.13528 -23.2621 22.1583 -0.53 10.8316 6.5954 -39.3549 -45.9459 0.786 0.112 2.5817 -1.04362e-015 0 -6.36111e-015 0.3601 -0.878 4.2331 -1.44119e-015 7.45443e-016 -3.18055e-015 1.8127 -1.216 2.2227 -1.98785e-016 2.98177e-016 -1.27222e-014 0.9571 1.114 1.7695 -1.98785e-016 -2.98177e-016 -3.18055e-015 4.1246 0.487 4.1451 2.48481e-016 -1.49089e-016 -3.18055e-015 3.4052 -1.454 2.7682 -1.63997e-015 1.49089e-016 -6.36111e-015 1.4531 -1.795 1.2713 -1.2424e-015 6.4605e-016 -3.18055e-015 5.6954 0.21 2.1184 2.48481e-016 -1.49089e-016 -3.18055e-015 3.9766 -1.54 2.3863 -1.63997e-015 1.49089e-016 -6.36111e-015 1.4042 -1.926 1.125 -1.2424e-015 6.4605e-016 -3.18055e-015 2.0956 0.66 -0.3894 -1.98785e-016 -2.98177e-016 -3.18055e-015 5.0395 -0.09 2.4971 2.48481e-016 -1.49089e-016 -3.18055e-015 3.7921 -1.552 1.4806 -1.63997e-015 1.49089e-016 -6.36111e-015 1.4655 -1.808 0.9609 -1.2424e-015 6.4605e-016 -3.18055e-015 4.9141 -1.269 0.3591 2.48481e-016 -1.49089e-016 -3.18055e-015 3.1477 -1.685 0.8462 -1.63997e-015 1.49089e-016 -6.36111e-015 0.8055 -1.585 0.7955 -1.2424e-015 6.4605e-016 -3.18055e-015 -1.7069 20.075 5.0056 34.2754 19.3667 31.2911 -13.6458 -0.047 -4.849 30.4896 -2.84455 -22.9115 -28.3255 -0.9759 2.2888 9.93913 5.85167 20.8825 -22.1583 -0.53 10.8316 -0.636822 -36.7715 48.0019 -0.786 0.112 2.5817 -1.19271e-015 1.98785e-016 -0 -0.3601 -0.878 4.2331 -1.09332e-015 3.97569e-016 -0 -1.8127 -1.216 2.2227 -6.95746e-016 5.96354e-016 -0 -0.9571 1.114 1.7695 -3.97569e-016 -1.98785e-016 -0 -4.1246 0.487 4.1451 -1.09332e-015 -5.96354e-016 -0 -3.4052 -1.454 2.7682 1.2921e-015 1.98785e-016 -0 -1.4531 -1.795 1.2713 -9.93923e-016 1.98785e-016 3.18055e-015 -5.6954 0.21 2.1184 -1.09332e-015 -5.96354e-016 -0 -3.9766 -1.54 2.3863 1.2921e-015 1.98785e-016 -0 -1.4042 -1.926 1.125 -9.93923e-016 1.98785e-016 3.18055e-015 -2.0956 0.66 -0.3894 -3.97569e-016 -1.98785e-016 -0 -5.0395 -0.09 2.4971 -1.09332e-015 -5.96354e-016 -0 -3.7921 -1.552 1.4806 1.2921e-015 1.98785e-016 -0 -1.4655 -1.808 0.9609 -9.93923e-016 1.98785e-016 3.18055e-015 -4.9141 -1.269 0.3592 -1.09332e-015 -5.96354e-016 -0 -3.1477 -1.685 0.8462 1.2921e-015 1.98785e-016 -0 -0.8055 -1.585 0.7955 -9.93923e-016 1.98785e-016 3.18055e-015 8.367 -8.2066 0.5982 59.4297 -20.304 23.0314 2.1923 -43.463 -0.4932 6.02549 83.2746 -0.727211 0.7333 -45.8593 -2.6451 -53.0786 45.2428 62.7977 -8.367 -8.2066 0.5982 -59.4493 -20.2922 -23.0587 -2.1923 -43.463 -0.4931 -6.22921 83.2725 0.937243 -0.7333 -45.8593 -2.6451 53.0475 45.2515 -62.7876 
